<svg xmlns="http://www.w3.org/2000/svg"><defs><symbol viewBox="0 0 26 26" id="calendar"><path fill-rule="evenodd" d="M7 5.999a1 1 0 0 1-1-1v-4a1 1 0 0 1 2 0v4a1 1 0 0 1-1 1zm13-1v-4a1 1 0 0 0-2 0v4a1 1 0 1 0 2 0zm6 .083v17.833a3.083 3.083 0 0 1-3.084 3.083H3.083A3.082 3.082 0 0 1 0 22.915V5.082a3.083 3.083 0 0 1 3.083-3.083H4v3a3 3 0 1 0 6 0v-3h6v3a3 3 0 1 0 6 0v-3h.916A3.084 3.084 0 0 1 26 5.082zm-2 4.917H2v12h22v-12zm-18 2H4v2h2v-2zm0 4H4v2h2v-2zm4-4H8v2h2v-2zm0 4H8v2h2v-2zm4-4h-2v2h2v-2zm0 4h-2v2h2v-2zm4-4h-2v2h2v-2zm4 0h-2v2h2v-2zm-4 4h-2v2h2v-2z"/></symbol><symbol viewBox="0 0 11 9" id="check"><path fill-rule="evenodd" d="M4.821 5.656L9.22 1.072a.306.306 0 0 1 .444 0l1.229 1.28a.341.341 0 0 1 0 .465L5.042 8.913l-.011.012-.012.011-.007.004-.013.009-.012.009-.007.004-.007.003-.007.003-.005.004-.007.003-.007.004-.007.002-.007.004-.007.001-.007.003-.007.002-.007.001-.007.002-.007.001-.006.002-.007.001L4.871 9H4.8l-.022-.003-.008-.002-.007-.001-.007-.002-.007-.001-.014-.005-.008-.003-.007-.001-.007-.003-.029-.015-.007-.003-.014-.008a.35.35 0 0 1-.055-.047c-5.166-5.381 1.626 1.693-3.541-3.69a.337.337 0 0 1 0-.462l1.228-1.281a.309.309 0 0 1 .446 0l2.08 2.183z"/></symbol><symbol viewBox="0 0 18 18" id="search"><path fill-rule="evenodd" d="M11.078 13.89c-3.829-.013-6.926-3.134-6.921-6.977.018-3.835 3.131-6.93 6.953-6.912 3.823.018 6.907 3.141 6.889 6.977-.018 3.822-3.111 6.912-6.921 6.912zm0-11.919c-2.71.012-4.898 2.223-4.892 4.942h.002c.018 2.711 2.222 4.894 4.924 4.876 2.702-.018 4.878-2.23 4.86-4.941-.018-2.7-2.204-4.878-4.894-4.877zm-5.27 11.661l-4.376 4.367-1.433-1.442 4.378-4.367 1.431 1.442z"/></symbol><symbol viewBox="0 0 30 16" id="swap"><path fill-rule="evenodd" d="M12.972 6.048h13.506l-2.286 2.277a1.005 1.005 0 0 0 0 1.413c.199.188.447.288.706.288.258 0 .507-.1.705-.288l3.976-3.978a1.005 1.005 0 0 0 0-1.413L25.603.369a1.003 1.003 0 0 0-1.411 0 1.005 1.005 0 0 0 0 1.413l2.286 2.277H12.972a.997.997 0 0 0-.993.995c0 .547.447.994.993.994zm-8.656 9.657c.199.188.448.288.706.288.258 0 .507-.1.706-.288a1.005 1.005 0 0 0 0-1.413l-2.286-2.277h13.506a.997.997 0 0 0 .993-.995.996.996 0 0 0-.993-.994H3.442l2.286-2.278a1.004 1.004 0 0 0 0-1.412 1.004 1.004 0 0 0-1.412 0L.341 10.315a1.004 1.004 0 0 0 0 1.412l3.975 3.978z"/></symbol><symbol viewBox="0 0 12 15" id="user"><path fill-rule="evenodd" d="M6.14 6.918c1.661 0 3.007-1.652 3.007-3.691 0-2.038-1.346-3.229-3.007-3.229S3.133 1.189 3.133 3.227c0 2.038 1.346 3.691 3.007 3.691zm5.839 5.216c-.293-2.679-2.757-3.631-5.754-3.631l-.085.002-.086-.002c-2.997 0-5.461.952-5.753 3.631-.008.069-.015.655-.021.972 1.614 1.235 3.574 1.895 5.859 1.895 2.261 0 4.253-.685 5.86-1.895-.005-.317-.013-.903-.02-.972z"/></symbol></defs></svg>