<svg 
 xmlns="http://www.w3.org/2000/svg"
 xmlns:xlink="http://www.w3.org/1999/xlink"
 width="11px" height="9px">
<path fill-rule="evenodd"  fill="rgb(0, 133, 197)"
 d="M4.821,5.656 L9.220,1.072 C9.342,0.945 9.542,0.945 9.664,1.072 L10.893,2.352 C11.015,2.479 11.015,2.688 10.893,2.817 C8.943,4.848 6.992,6.880 5.042,8.913 L5.031,8.925 L5.031,8.925 L5.019,8.936 L5.019,8.936 L5.012,8.940 L5.012,8.940 L4.999,8.949 L4.999,8.949 L4.987,8.958 L4.987,8.958 L4.980,8.962 L4.980,8.962 L4.973,8.965 L4.973,8.965 L4.966,8.968 L4.966,8.968 L4.961,8.972 L4.961,8.972 L4.954,8.975 L4.954,8.975 L4.947,8.979 L4.947,8.979 L4.940,8.981 L4.940,8.981 L4.933,8.985 L4.933,8.985 L4.926,8.986 L4.926,8.986 L4.919,8.989 L4.919,8.989 L4.912,8.991 L4.912,8.991 L4.905,8.992 L4.905,8.992 L4.898,8.994 L4.891,8.995 L4.891,8.995 L4.885,8.997 L4.885,8.997 L4.878,8.998 L4.878,8.998 L4.871,9.000 L4.871,9.000 L4.864,9.000 L4.864,9.000 L4.857,9.000 L4.857,9.000 L4.850,9.000 L4.850,9.000 L4.843,9.000 L4.843,9.000 L4.836,9.000 L4.836,9.000 L4.829,9.000 L4.822,9.000 L4.822,9.000 L4.814,9.000 L4.814,9.000 L4.807,9.000 L4.807,9.000 L4.800,9.000 L4.800,9.000 C4.793,9.000 4.785,8.998 4.778,8.997 L4.778,8.997 L4.770,8.995 L4.770,8.995 L4.763,8.994 L4.763,8.994 L4.756,8.992 L4.749,8.991 L4.749,8.991 L4.735,8.986 L4.735,8.986 L4.727,8.983 L4.727,8.983 L4.720,8.982 L4.720,8.982 L4.713,8.979 C4.703,8.974 4.694,8.970 4.684,8.964 L4.677,8.961 L4.677,8.961 L4.663,8.953 L4.663,8.953 C4.644,8.940 4.624,8.923 4.608,8.906 C-0.558,3.525 6.234,10.599 1.067,5.216 C0.945,5.090 0.945,4.880 1.067,4.754 L2.295,3.473 C2.417,3.346 2.618,3.346 2.741,3.473 L4.821,5.656 L4.821,5.656 Z"/>
</svg>