<svg 
 xmlns="http://www.w3.org/2000/svg"
 xmlns:xlink="http://www.w3.org/1999/xlink"
 width="30px" height="16px">
<path fill-rule="evenodd"  fill="rgb(148, 196, 219)"
 d="M12.972,6.048 L26.478,6.048 L24.192,8.325 C23.805,8.713 23.805,9.350 24.192,9.738 C24.391,9.926 24.639,10.026 24.898,10.026 C25.156,10.026 25.405,9.926 25.603,9.738 L29.579,5.760 C29.966,5.372 29.966,4.735 29.579,4.347 L25.603,0.369 C25.216,-0.018 24.580,-0.018 24.192,0.369 C23.805,0.757 23.805,1.394 24.192,1.782 L26.478,4.059 L12.972,4.059 C12.426,4.059 11.979,4.507 11.979,5.054 C11.979,5.601 12.426,6.048 12.972,6.048 ZM4.316,15.705 C4.515,15.893 4.764,15.993 5.022,15.993 C5.280,15.993 5.529,15.893 5.728,15.705 C6.115,15.317 6.115,14.680 5.728,14.292 L3.442,12.015 L16.948,12.015 C17.494,12.015 17.941,11.567 17.941,11.020 C17.941,10.473 17.494,10.026 16.948,10.026 L3.442,10.026 L5.728,7.748 C6.115,7.361 6.115,6.725 5.728,6.336 C5.340,5.949 4.704,5.949 4.316,6.336 L0.341,10.315 C-0.046,10.702 -0.046,11.338 0.341,11.727 L4.316,15.705 Z"/>
</svg>