<svg 
 xmlns="http://www.w3.org/2000/svg"
 xmlns:xlink="http://www.w3.org/1999/xlink"
 width="12px" height="15px">
<path fill-rule="evenodd"  fill="rgb(168, 213, 235)"
 d="M6.140,6.918 C7.801,6.918 9.147,5.266 9.147,3.227 C9.147,1.189 7.801,-0.002 6.140,-0.002 C4.479,-0.002 3.133,1.189 3.133,3.227 C3.133,5.265 4.479,6.918 6.140,6.918 ZM11.979,12.134 C11.686,9.455 9.222,8.503 6.225,8.503 C6.196,8.503 6.168,8.504 6.140,8.505 C6.111,8.504 6.084,8.503 6.054,8.503 C3.057,8.503 0.593,9.455 0.301,12.134 C0.293,12.203 0.286,12.789 0.280,13.106 C1.894,14.341 3.854,15.001 6.139,15.001 C8.400,15.001 10.392,14.316 11.999,13.106 C11.994,12.789 11.986,12.203 11.979,12.134 Z"/>
</svg>